<svg width="22" height="23" viewBox="0 0 22 23" fill="none" xmlns="http://www.w3.org/2000/svg">
<path d="M1.26073 11.5363C1.26073 13.694 1.37749 15.3677 1.66757 16.6729C1.95543 17.9681 2.4021 18.8459 3.02496 19.4688C3.64782 20.0916 4.52557 20.5383 5.82081 20.8261C7.12605 21.1162 8.79976 21.233 10.9574 21.233C13.1151 21.233 14.7888 21.1162 16.0941 20.8261C17.3893 20.5383 18.267 20.0916 18.8899 19.4688C19.5128 18.8459 19.9594 17.9681 20.2473 16.6729C20.5374 15.3677 20.6541 13.694 20.6541 11.5363C20.6541 9.37861 20.5374 7.70491 20.2473 6.39966C19.9594 5.10442 19.5128 4.22668 18.8899 3.60382C18.267 2.98096 17.3893 2.53429 16.0941 2.24643C14.7888 1.95635 13.1151 1.83959 10.9574 1.83959C8.79976 1.83959 7.12605 1.95635 5.82081 2.24643C4.52557 2.53429 3.64782 2.98096 3.02496 3.60382C2.4021 4.22668 1.95543 5.10442 1.66757 6.39966C1.37749 7.70491 1.26073 9.37861 1.26073 11.5363Z" stroke="currentColor" stroke-width="1.76304" stroke-linecap="round" stroke-linejoin="round"/>
<path d="M13.7247 13.52L15.5055 8.68571C15.8954 7.62724 14.8661 6.59795 13.8077 6.98787L8.97339 8.76872C8.61 8.90258 8.32356 9.18902 8.1897 9.55241L6.40885 14.3867C6.01893 15.4452 7.04822 16.4744 8.10669 16.0845L12.941 14.3037C13.3044 14.1698 13.5908 13.8834 13.7247 13.52Z" stroke="currentColor" stroke-width="1.76304" stroke-linecap="round" stroke-linejoin="round"/>
</svg>
