<svg width="15" height="15" viewBox="0 0 15 15" fill="none" xmlns="http://www.w3.org/2000/svg">
<path d="M7.23548 1.44312C7.76608 1.44312 8.5782 3.68327 8.94929 4.79741C9.07072 5.16198 9.40774 5.41483 9.79165 5.43114C10.9536 5.48051 13.2787 5.64992 13.2787 6.21512C13.2787 6.76921 11.6401 8.09896 10.7728 8.76392C10.4637 9.0009 10.3358 9.40797 10.4523 9.77962C10.8 10.8886 11.428 13.1237 10.9712 13.4987C10.5245 13.8654 8.72985 12.5569 7.79346 11.8238C7.4565 11.5599 6.97984 11.5596 6.64284 11.8234C5.70627 12.5565 3.91478 13.8655 3.49976 13.4987C3.0744 13.1228 3.6712 10.8775 3.99848 9.77143C4.1073 9.40364 3.97807 9.00467 3.67359 8.77141C2.80893 8.10899 1.15787 6.7713 1.15787 6.21512C1.15787 5.64901 3.49045 5.47997 4.65053 5.43091C5.03187 5.41478 5.36694 5.16549 5.49029 4.80428C5.86994 3.69252 6.70378 1.44312 7.23548 1.44312Z" fill="#00B9AE" stroke="#00B9AE" stroke-width="1.76304" stroke-linecap="round" stroke-linejoin="round"/>
</svg>
