<svg width="10" height="15" viewBox="0 0 10 15" fill="none" xmlns="http://www.w3.org/2000/svg">
<path d="M7.29711 2.00676C7.53606 1.60754 7.88813 1.80204 7.91397 2.26659C8.04194 4.5675 8.3481 10.9248 7.85151 11.3578C7.84923 11.3598 7.84961 11.3594 7.84729 11.3613C7.77327 11.4232 4.69165 13.995 4.1301 13.4987C3.70474 13.1228 4.30154 10.8775 4.62882 9.77143C4.73764 9.40364 4.60841 9.00466 4.30393 8.77141C3.43927 8.10899 1.78821 6.7713 1.78821 6.21512C1.78821 5.64901 4.12079 5.47997 5.28087 5.43091C5.66221 5.41478 5.99728 5.16549 6.12063 4.80428C6.3807 4.0427 6.8539 2.74727 7.29711 2.00676Z" fill="#00B9AE"/>
<path d="M7.29711 2.00676C7.53606 1.60754 7.88813 1.80204 7.91397 2.26659C8.04194 4.5675 8.3481 10.9248 7.85151 11.3578C7.84923 11.3598 7.84961 11.3594 7.84729 11.3613C7.77327 11.4232 4.69165 13.995 4.1301 13.4987C3.70474 13.1228 4.30154 10.8775 4.62882 9.77143C4.73764 9.40364 4.60841 9.00466 4.30393 8.77141C3.43927 8.10899 1.78821 6.7713 1.78821 6.21512C1.78821 5.64901 4.12079 5.47997 5.28087 5.43091C5.66221 5.41478 5.99728 5.16549 6.12063 4.80428C6.3807 4.0427 6.8539 2.74727 7.29711 2.00676Z" stroke="#00B9AE" stroke-width="1.76304" stroke-linecap="round" stroke-linejoin="round"/>
</svg>
